<svg xmlns="http://www.w3.org/2000/svg" width="763.49" height="774.416" viewBox="0 0 763.49 774.416">
  <g id="Logo_big" transform="translate(-346.647 -176.936)">
    <g id="Ellipse_2" data-name="Ellipse 2" transform="translate(656.862 485.915)" fill="#cfd4e3" stroke="#003675" stroke-width="3" opacity="0.82">
      <circle cx="62.511" cy="62.511" r="62.511" stroke="none"/>
      <circle cx="62.511" cy="62.511" r="61.011" fill="none"/>
    </g>
    <g id="Ellipse_1" data-name="Ellipse 1" transform="translate(647.862 475.915)" fill="none" stroke="#fff" stroke-width="3">
      <circle cx="62.511" cy="62.511" r="62.511" stroke="none"/>
      <circle cx="62.511" cy="62.511" r="61.011" fill="none"/>
    </g>
    <g id="Group_7" data-name="Group 7" transform="translate(396.011 208.252)" opacity="0.36">
      <path id="Path_3" data-name="Path 3" d="M554.888,241.85S580,272.016,583.377,285.464c91.569-39.68,181-67.673,164.565-123.241s-43.828-62.273-43.828-62.273Z" transform="translate(-93.66 9.225)" fill="none" stroke="#fff" stroke-linecap="round" stroke-width="3" stroke-dasharray="10 20"/>
      <path id="Path_8" data-name="Path 8" d="M0,41.356S23.813,12.752,27.013,0c21.36,9.256,44.448,20.2,66.7,29.849,68.1,29.539,124.238,64.356,66.164,142.547C157.315,170.384,0,41.356,0,41.356Z" transform="translate(288.398 461.392) rotate(97)" fill="none" stroke="#fff" stroke-linecap="round" stroke-width="3" stroke-dasharray="10 20"/>
      <path id="Path_4" data-name="Path 4" d="M590.031,299.829c0-2.645,137.117-42.326,137.117-42.326s70.542-16.313,80.242,73.188c3.162,29.177-7.567,45.865-19.163,57.307-23.522,23.21-61.079,18.526-61.079,18.526s-83.41-14.311-132.267-28.658C593.77,375.758,601.195,344.853,590.031,299.829Z" transform="translate(-95.296 1.948)" fill="none" stroke="#fff" stroke-linecap="round" stroke-width="3" stroke-dasharray="10 20"/>
      <path id="Path_5" data-name="Path 5" d="M591.991,392.362s107.744,31.306,135.659,40.958S791.3,484.193,754,545.5s-93.412,27.507-101.744,22.7-95.222-94.7-101.744-104.353C570.077,447.93,591.991,392.362,591.991,392.362Z" transform="translate(-93.457 -4.382)" fill="none" stroke="#fff" stroke-linecap="round" stroke-width="3" stroke-dasharray="10 20"/>
      <path id="Path_6" data-name="Path 6" d="M543.09,472.531s80.091,98.614,92.091,119.745,10.174,63.133-31.045,87.917-64.177,12.261-77.482,9.131c-14.349-8.348-30-22.7-34.958-41.741s-17.218-94.961-22.175-140.355C519.872,496.793,543.09,472.531,543.09,472.531Z" transform="translate(-89.688 -8.112)" fill="none" stroke="#fff" stroke-linecap="round" stroke-width="3" stroke-dasharray="10 20"/>
      <path id="Path_7" data-name="Path 7" d="M73.569,0S153.66,98.613,165.66,119.745s10.174,63.133-31.045,87.917-64.177,12.261-77.482,9.131c-14.349-8.348-30-22.7-34.958-41.741S4.957,80.091,0,34.7C50.35,24.262,73.569,0,73.569,0Z" transform="translate(309.987 460.129) rotate(34)" fill="none" stroke="#fff" stroke-linecap="round" stroke-width="3" stroke-dasharray="10 20"/>
      <path id="Path_9" data-name="Path 9" d="M295.177,417.252s-66.54-35.425-118.983-87.834c-50.848-50.815-92.46-108.887-72.577-149.564,8.508-17.408,35.836-29.025,73.77-34.837,26.186-4.012,57.7-5.192,91.395-3.487,81.792,4.137,162,54.872,162,54.872" transform="translate(-72.426 7.325)" fill="none" stroke="#fff" stroke-linecap="round" stroke-width="3" stroke-dasharray="10 20"/>
      <path id="Path_10" data-name="Path 10" d="M282.088,315.993s-34.024-69.89-42.294-143.571c-11.025-61.25-10.853-120.4,30.184-146.172,22.384-14.922,69.4-13.2,117.006,24.079,69.414,54.36,132.793,159.859,132.793,159.859" transform="translate(-78.71 13.062)" fill="none" stroke="#fff" stroke-linecap="round" stroke-width="3" stroke-dasharray="10 20"/>
      <path id="Path_11" data-name="Path 11" d="M281.386,468.151s-8.036-167.939,45.778-303.758C367.5,62.594,440.09-23.169,492.234-13.86c38.384,6.852,61.272,66.424,73.932,208.847" transform="translate(-80.914 14.553)" fill="none" stroke="#fff" stroke-linecap="round" stroke-width="3" stroke-dasharray="10 20"/>
      <path id="Path_12" data-name="Path 12" d="M263.392,478.589s-64.007-2.281-116.791-20.441c-43.049-14.811-77.034-42.407-75.392-70.1,2.014-33.973,28.223-63.04,69.947-92.909,33.521-24,75.6-50.874,136.831-62.726,136.676-26.453,271.83-22.433,271.83-22.433" transform="translate(-71.151 4.115)" fill="none" stroke="#fff" stroke-linecap="round" stroke-width="3" stroke-dasharray="10 20"/>
      <path id="Path_13" data-name="Path 13" d="M314.431,439.189l-143.6,136.235s-37.476-41.444,6.613-136.235C199.1,378.651,259.65,303.635,324.336,241.558c27.816-26.694,93.814-88.088,160.848-123.338,65.51-34.447,159.162-58.2,190.024-25.572-88.7,88.491-141.592,140.12-141.592,140.12" transform="translate(-75.098 10.287)" fill="none" stroke="#fff" stroke-linecap="round" stroke-width="3" stroke-dasharray="10 20"/>
    </g>
    <g id="Group_6" data-name="Group 6" transform="translate(348.151 178.447)">
      <path id="Path_3-2" data-name="Path 3" d="M554.888,245.313s25.726,30.9,29.184,44.679c93.8-40.648,185.417-69.324,168.581-126.248s-44.9-63.792-44.9-63.792Z" transform="translate(-82.404 11.889)" fill="rgba(225,230,244,0.55)" stroke="#003675" stroke-width="3"/>
      <path id="Path_8-2" data-name="Path 8" d="M0,42.365S24.394,13.063,27.673,0C49.554,9.482,73.206,20.689,96,30.578,165.764,60.838,223.273,96.5,163.781,176.6,161.154,174.542,0,42.365,0,42.365Z" transform="translate(295.436 472.652) rotate(97)" fill="rgba(225,230,244,0.55)" stroke="#003675" stroke-width="3"/>
      <path id="Path_4-2" data-name="Path 4" d="M590.031,300.891c0-2.71,140.463-43.358,140.463-43.358s72.264-16.711,82.2,74.974c3.239,29.889-7.751,46.985-19.631,58.706-24.1,23.776-62.569,18.978-62.569,18.978S645.049,395.529,595,380.833C593.861,378.672,601.467,347.014,590.031,300.891Z" transform="translate(-83.222 8.251)" fill="rgba(225,230,244,0.55)" stroke="#003675" stroke-width="3"/>
      <path id="Path_5-2" data-name="Path 5" d="M593,392.362s110.374,32.07,138.969,41.958,65.209,52.114,26.992,114.917-95.692,28.179-104.227,23.251-97.546-97.011-104.227-106.9C570.555,449.286,593,392.362,593,392.362Z" transform="translate(-82.302 5.087)" fill="rgba(225,230,244,0.55)" stroke="#003675" stroke-width="3"/>
      <path id="Path_6-2" data-name="Path 6" d="M544.886,472.531s82.045,101.02,94.339,122.667,10.423,64.674-31.8,90.063-65.743,12.561-79.373,9.354c-14.7-8.552-30.734-23.251-35.811-42.76s-17.638-97.279-22.716-143.78C521.1,497.385,544.886,472.531,544.886,472.531Z" transform="translate(-80.418 3.222)" fill="rgba(225,230,244,0.55)" stroke="#003675" stroke-width="3"/>
      <path id="Path_7-2" data-name="Path 7" d="M75.364,0S157.41,101.02,169.7,122.667s10.423,64.674-31.8,90.063-65.743,12.561-79.373,9.354c-14.7-8.552-30.734-23.251-35.811-42.76S5.078,82.045,0,35.544C51.579,24.854,75.364,0,75.364,0Z" transform="translate(317.552 471.358) rotate(34)" fill="rgba(225,230,244,0.55)" stroke="#003675" stroke-width="3"/>
      <path id="Path_9-2" data-name="Path 9" d="M299.975,424s-68.164-36.29-121.886-89.978C126,281.967,83.372,222.478,103.74,180.808c8.716-17.833,36.711-29.733,75.57-35.687,26.825-4.11,59.1-5.318,93.625-3.572,83.788,4.238,165.958,56.211,165.958,56.211" transform="translate(-71.788 10.94)" fill="none" stroke="#003675" stroke-width="3"/>
      <path id="Path_10-2" data-name="Path 10" d="M283.272,323.278s-34.854-71.6-43.326-147.075c-11.294-62.745-11.118-123.335,30.921-149.74,22.93-15.287,71.1-13.521,119.861,24.667,71.108,55.687,136.034,163.76,136.034,163.76" transform="translate(-74.93 13.808)" fill="none" stroke="#003675" stroke-width="3"/>
      <path id="Path_11-2" data-name="Path 11" d="M281.4,479.931s-8.232-172.037,46.9-311.172C369.61,64.477,443.973-23.379,497.39-13.843,536.711-6.824,560.158,54.2,573.126,200.1" transform="translate(-76.032 14.553)" fill="none" stroke="#003675" stroke-width="3"/>
      <path id="Path_12-2" data-name="Path 12" d="M268.084,485.149s-65.569-2.336-119.642-20.94c-44.1-15.173-78.914-43.442-77.232-71.813,2.063-34.8,28.912-64.579,71.654-95.176,34.339-24.582,77.445-52.116,140.17-64.256,140.012-27.1,278.464-22.98,278.464-22.98" transform="translate(-71.151 9.335)" fill="none" stroke="#003675" stroke-width="3"/>
      <path id="Path_13-2" data-name="Path 13" d="M318.3,448.026,171.191,587.586s-38.39-42.455,6.775-139.56c22.189-62.016,84.215-138.863,150.479-202.454,28.494-27.345,96.1-90.238,164.774-126.348,67.109-35.288,163.046-59.618,194.662-26.2-90.87,90.651-145.048,143.539-145.048,143.539" transform="translate(-73.124 12.42)" fill="none" stroke="#003675" stroke-width="3"/>
    </g>
  </g>
</svg>
