<svg xmlns="http://www.w3.org/2000/svg" width="308.836" height="402.652" viewBox="0 0 308.836 402.652">
  <g id="Group_4" data-name="Group 4" transform="translate(0.5 0.5)">
    <g id="pattern_4_" data-name="pattern (4)" transform="translate(58.635 117.271)">
      <rect id="Rectangle_4" data-name="Rectangle 4" width="59" height="59" transform="translate(7.365 7.382)" fill="rgba(255,255,255,0)"/>
      <path id="Path_1" data-name="Path 1" d="M38.977,31.318H24.318m14.659-5.864H24.318M9.659,2H-5M9.659,54.772H-5m73.294,0H53.635M68.294,2H53.635" transform="translate(5 8.261)" fill="none" stroke="#5f6b9b" stroke-linecap="square" stroke-width="1"/>
      <path id="Path_2" data-name="Path 2" d="M31.318-5V9.659M25.454-5V9.659M2,24.318V38.977M31.318,53.635V68.294M25.454,53.635V68.294M54.772,24.318V38.977" transform="translate(8.261 5)" fill="none" stroke="#e3e8fc" stroke-linecap="square" stroke-width="1"/>
    </g>
    <g id="pattern_4_2" data-name="pattern (4)" transform="translate(0 58.635)">
      <rect id="Rectangle_4-2" data-name="Rectangle 4" width="59" height="59" transform="translate(7 7.017)" fill="rgba(255,255,255,0)"/>
      <path id="Path_1-2" data-name="Path 1" d="M38.977,31.318H24.318m14.659-5.864H24.318M9.659,2H-5M9.659,54.772H-5m73.294,0H53.635M68.294,2H53.635" transform="translate(5 8.261)" fill="none" stroke="#5f6b9b" stroke-linecap="square" stroke-width="1"/>
      <path id="Path_2-2" data-name="Path 2" d="M31.318-5V9.659M25.454-5V9.659M2,24.318V38.977M31.318,53.635V68.294M25.454,53.635V68.294M54.772,24.318V38.977" transform="translate(8.261 5)" fill="none" stroke="#e3e8fc" stroke-linecap="square" stroke-width="1"/>
    </g>
    <g id="pattern_4_3" data-name="pattern (4)" transform="translate(58.635 58.635)">
      <rect id="Rectangle_4-3" data-name="Rectangle 4" width="59" height="59" transform="translate(7.365 7.017)" fill="rgba(255,255,255,0)"/>
      <path id="Path_1-3" data-name="Path 1" d="M38.977,31.318H24.318m14.659-5.864H24.318M9.659,2H-5M9.659,54.772H-5m73.294,0H53.635M68.294,2H53.635" transform="translate(5 8.261)" fill="none" stroke="#5f6b9b" stroke-linecap="square" stroke-width="1"/>
      <path id="Path_2-3" data-name="Path 2" d="M31.318-5V9.659M25.454-5V9.659M2,24.318V38.977M31.318,53.635V68.294M25.454,53.635V68.294M54.772,24.318V38.977" transform="translate(8.261 5)" fill="none" stroke="#e3e8fc" stroke-linecap="square" stroke-width="1"/>
    </g>
    <g id="pattern_4_4" data-name="pattern (4)" transform="translate(117.271 164.179)">
      <rect id="Rectangle_4-4" data-name="Rectangle 4" width="58" height="58" transform="translate(7.729 7.473)" fill="rgba(255,255,255,0)"/>
      <path id="Path_1-4" data-name="Path 1" d="M38.977,31.318H24.318m14.659-5.864H24.318M9.659,2H-5M9.659,54.772H-5m73.294,0H53.635M68.294,2H53.635" transform="translate(5 8.261)" fill="none" stroke="#5f6b9b" stroke-linecap="square" stroke-width="1"/>
      <path id="Path_2-4" data-name="Path 2" d="M31.318-5V9.659M25.454-5V9.659M2,24.318V38.977M31.318,53.635V68.294M25.454,53.635V68.294M54.772,24.318V38.977" transform="translate(8.261 5)" fill="none" stroke="#e3e8fc" stroke-linecap="square" stroke-width="1"/>
    </g>
    <g id="pattern_4_5" data-name="pattern (4)" transform="translate(234.541 281.45)">
      <rect id="Rectangle_4-5" data-name="Rectangle 4" width="58" height="59" transform="translate(7.459 7.203)" fill="rgba(255,255,255,0)"/>
      <path id="Path_1-5" data-name="Path 1" d="M38.977,31.318H24.318m14.659-5.864H24.318M9.659,2H-5M9.659,54.772H-5m73.294,0H53.635M68.294,2H53.635" transform="translate(5 8.261)" fill="none" stroke="#5f6b9b" stroke-linecap="square" stroke-width="1"/>
      <path id="Path_2-5" data-name="Path 2" d="M31.318-5V9.659M25.454-5V9.659M2,24.318V38.977M31.318,53.635V68.294M25.454,53.635V68.294M54.772,24.318V38.977" transform="translate(8.261 5)" fill="none" stroke="#e3e8fc" stroke-linecap="square" stroke-width="1"/>
    </g>
    <g id="pattern_4_6" data-name="pattern (4)" transform="translate(175.906 164.179)">
      <rect id="Rectangle_4-6" data-name="Rectangle 4" width="59" height="58" transform="translate(7.094 7.473)" fill="rgba(255,255,255,0)"/>
      <path id="Path_1-6" data-name="Path 1" d="M38.977,31.318H24.318m14.659-5.864H24.318M9.659,2H-5M9.659,54.772H-5m73.294,0H53.635M68.294,2H53.635" transform="translate(5 8.261)" fill="none" stroke="#5f6b9b" stroke-linecap="square" stroke-width="1"/>
      <path id="Path_2-6" data-name="Path 2" d="M31.318-5V9.659M25.454-5V9.659M2,24.318V38.977M31.318,53.635V68.294M25.454,53.635V68.294M54.772,24.318V38.977" transform="translate(8.261 5)" fill="none" stroke="#e3e8fc" stroke-linecap="square" stroke-width="1"/>
    </g>
    <g id="pattern_4_7" data-name="pattern (4)" transform="translate(0 0)">
      <rect id="Rectangle_4-7" data-name="Rectangle 4" width="59" height="59" transform="translate(7 6.652)" fill="rgba(255,255,255,0)"/>
      <path id="Path_1-7" data-name="Path 1" d="M38.977,31.318H24.318m14.659-5.864H24.318M9.659,2H-5M9.659,54.772H-5m73.294,0H53.635M68.294,2H53.635" transform="translate(5 8.261)" fill="none" stroke="#5f6b9b" stroke-linecap="square" stroke-width="1"/>
      <path id="Path_2-7" data-name="Path 2" d="M31.318-5V9.659M25.454-5V9.659M2,24.318V38.977M31.318,53.635V68.294M25.454,53.635V68.294M54.772,24.318V38.977" transform="translate(8.261 5)" fill="none" stroke="#e3e8fc" stroke-linecap="square" stroke-width="1"/>
    </g>
    <g id="pattern_4_8" data-name="pattern (4)" transform="translate(0 117.271)">
      <rect id="Rectangle_4-8" data-name="Rectangle 4" width="59" height="59" transform="translate(7 7.382)" fill="rgba(255,255,255,0)"/>
      <path id="Path_1-8" data-name="Path 1" d="M38.977,31.318H24.318m14.659-5.864H24.318M9.659,2H-5M9.659,54.772H-5m73.294,0H53.635M68.294,2H53.635" transform="translate(5 8.261)" fill="none" stroke="#5f6b9b" stroke-linecap="square" stroke-width="1"/>
      <path id="Path_2-8" data-name="Path 2" d="M31.318-5V9.659M25.454-5V9.659M2,24.318V38.977M31.318,53.635V68.294M25.454,53.635V68.294M54.772,24.318V38.977" transform="translate(8.261 5)" fill="none" stroke="#e3e8fc" stroke-linecap="square" stroke-width="1"/>
    </g>
    <g id="pattern_4_9" data-name="pattern (4)" transform="translate(0 164.179)">
      <rect id="Rectangle_4-9" data-name="Rectangle 4" width="59" height="58" transform="translate(7 7.473)" fill="rgba(255,255,255,0)"/>
      <path id="Path_1-9" data-name="Path 1" d="M38.977,31.318H24.318m14.659-5.864H24.318M9.659,2H-5M9.659,54.772H-5m73.294,0H53.635M68.294,2H53.635" transform="translate(5 8.261)" fill="none" stroke="#5f6b9b" stroke-linecap="square" stroke-width="1"/>
      <path id="Path_2-9" data-name="Path 2" d="M31.318-5V9.659M25.454-5V9.659M2,24.318V38.977M31.318,53.635V68.294M25.454,53.635V68.294M54.772,24.318V38.977" transform="translate(8.261 5)" fill="none" stroke="#e3e8fc" stroke-linecap="square" stroke-width="1"/>
    </g>
    <g id="Group_2" data-name="Group 2" transform="translate(0 222.814)">
      <g id="pattern_4_10" data-name="pattern (4)" transform="translate(0 58.635)">
        <rect id="Rectangle_4-10" data-name="Rectangle 4" width="59" height="59" transform="translate(7 7.203)" fill="rgba(255,255,255,0)"/>
        <path id="Path_1-10" data-name="Path 1" d="M24.318,31.318H38.977M24.318,25.454H38.977M53.635,2H68.294M53.635,54.772H68.294M-5,54.772H9.659M-5,2H9.659" transform="translate(5 8.261)" fill="none" stroke="#5f6b9b" stroke-linecap="square" stroke-width="1"/>
        <path id="Path_2-10" data-name="Path 2" d="M25.454-5V9.659M31.318-5V9.659M54.772,24.318V38.977M25.454,53.635V68.294m5.864-14.659V68.294M2,24.318V38.977" transform="translate(8.261 5)" fill="none" stroke="#e3e8fc" stroke-linecap="square" stroke-width="1"/>
      </g>
      <g id="pattern_4_11" data-name="pattern (4)" transform="translate(58.635)">
        <rect id="Rectangle_4-11" data-name="Rectangle 4" width="59" height="59" transform="translate(7.365 6.838)" fill="rgba(255,255,255,0)"/>
        <path id="Path_1-11" data-name="Path 1" d="M24.318,31.318H38.977M24.318,25.454H38.977M53.635,2H68.294M53.635,54.772H68.294M-5,54.772H9.659M-5,2H9.659" transform="translate(5 8.261)" fill="none" stroke="#5f6b9b" stroke-linecap="square" stroke-width="1"/>
        <path id="Path_2-11" data-name="Path 2" d="M25.454-5V9.659M31.318-5V9.659M54.772,24.318V38.977M25.454,53.635V68.294m5.864-14.659V68.294M2,24.318V38.977" transform="translate(8.261 5)" fill="none" stroke="#e3e8fc" stroke-linecap="square" stroke-width="1"/>
      </g>
      <g id="pattern_4_12" data-name="pattern (4)">
        <rect id="Rectangle_4-12" data-name="Rectangle 4" width="59" height="59" transform="translate(7 6.838)" fill="rgba(255,255,255,0)"/>
        <path id="Path_1-12" data-name="Path 1" d="M24.318,31.318H38.977M24.318,25.454H38.977M53.635,2H68.294M53.635,54.772H68.294M-5,54.772H9.659M-5,2H9.659" transform="translate(5 8.261)" fill="none" stroke="#5f6b9b" stroke-linecap="square" stroke-width="1"/>
        <path id="Path_2-12" data-name="Path 2" d="M25.454-5V9.659M31.318-5V9.659M54.772,24.318V38.977M25.454,53.635V68.294m5.864-14.659V68.294M2,24.318V38.977" transform="translate(8.261 5)" fill="none" stroke="#e3e8fc" stroke-linecap="square" stroke-width="1"/>
      </g>
      <g id="pattern_4_13" data-name="pattern (4)" transform="translate(58.635 58.635)">
        <rect id="Rectangle_4-13" data-name="Rectangle 4" width="59" height="59" transform="translate(7.365 7.203)" fill="rgba(255,255,255,0)"/>
        <path id="Path_1-13" data-name="Path 1" d="M24.318,31.318H38.977M24.318,25.454H38.977M53.635,2H68.294M53.635,54.772H68.294M-5,54.772H9.659M-5,2H9.659" transform="translate(5 8.261)" fill="none" stroke="#5f6b9b" stroke-linecap="square" stroke-width="1"/>
        <path id="Path_2-13" data-name="Path 2" d="M25.454-5V9.659M31.318-5V9.659M54.772,24.318V38.977M25.454,53.635V68.294m5.864-14.659V68.294M2,24.318V38.977" transform="translate(8.261 5)" fill="none" stroke="#e3e8fc" stroke-linecap="square" stroke-width="1"/>
      </g>
      <g id="pattern_4_14" data-name="pattern (4)" transform="translate(58.635 105.544)">
        <rect id="Rectangle_4-14" data-name="Rectangle 4" width="59" height="59" transform="translate(7.365 7.294)" fill="rgba(255,255,255,0)"/>
        <path id="Path_1-14" data-name="Path 1" d="M24.318,31.318H38.977M24.318,25.454H38.977M53.635,2H68.294M53.635,54.772H68.294M-5,54.772H9.659M-5,2H9.659" transform="translate(5 8.261)" fill="none" stroke="#5f6b9b" stroke-linecap="square" stroke-width="1"/>
        <path id="Path_2-14" data-name="Path 2" d="M25.454-5V9.659M31.318-5V9.659M54.772,24.318V38.977M25.454,53.635V68.294m5.864-14.659V68.294M2,24.318V38.977" transform="translate(8.261 5)" fill="none" stroke="#e3e8fc" stroke-linecap="square" stroke-width="1"/>
      </g>
    </g>
    <g id="Group_3" data-name="Group 3" transform="translate(117.271 222.814)">
      <g id="pattern_4_15" data-name="pattern (4)" transform="translate(0 58.635)">
        <rect id="Rectangle_4-15" data-name="Rectangle 4" width="58" height="59" transform="translate(7.729 7.203)" fill="rgba(255,255,255,0)"/>
        <path id="Path_1-15" data-name="Path 1" d="M24.318,31.318H38.977M24.318,25.454H38.977M53.635,2H68.294M53.635,54.772H68.294M-5,54.772H9.659M-5,2H9.659" transform="translate(5 8.261)" fill="none" stroke="#5f6b9b" stroke-linecap="square" stroke-width="1"/>
        <path id="Path_2-15" data-name="Path 2" d="M25.454-5V9.659M31.318-5V9.659M54.772,24.318V38.977M25.454,53.635V68.294m5.864-14.659V68.294M2,24.318V38.977" transform="translate(8.261 5)" fill="none" stroke="#e3e8fc" stroke-linecap="square" stroke-width="1"/>
      </g>
      <g id="pattern_4_16" data-name="pattern (4)" transform="translate(58.635)">
        <rect id="Rectangle_4-16" data-name="Rectangle 4" width="59" height="59" transform="translate(7.094 6.838)" fill="rgba(255,255,255,0)"/>
        <path id="Path_1-16" data-name="Path 1" d="M24.318,31.318H38.977M24.318,25.454H38.977M53.635,2H68.294M53.635,54.772H68.294M-5,54.772H9.659M-5,2H9.659" transform="translate(5 8.261)" fill="none" stroke="#5f6b9b" stroke-linecap="square" stroke-width="1"/>
        <path id="Path_2-16" data-name="Path 2" d="M25.454-5V9.659M31.318-5V9.659M54.772,24.318V38.977M25.454,53.635V68.294m5.864-14.659V68.294M2,24.318V38.977" transform="translate(8.261 5)" fill="none" stroke="#e3e8fc" stroke-linecap="square" stroke-width="1"/>
      </g>
      <g id="pattern_4_17" data-name="pattern (4)" transform="translate(0)">
        <rect id="Rectangle_4-17" data-name="Rectangle 4" width="58" height="59" transform="translate(7.729 6.838)" fill="rgba(255,255,255,0)"/>
        <path id="Path_1-17" data-name="Path 1" d="M24.318,31.318H38.977M24.318,25.454H38.977M53.635,2H68.294M53.635,54.772H68.294M-5,54.772H9.659M-5,2H9.659" transform="translate(5 8.261)" fill="none" stroke="#5f6b9b" stroke-linecap="square" stroke-width="1"/>
        <path id="Path_2-17" data-name="Path 2" d="M25.454-5V9.659M31.318-5V9.659M54.772,24.318V38.977M25.454,53.635V68.294m5.864-14.659V68.294M2,24.318V38.977" transform="translate(8.261 5)" fill="none" stroke="#e3e8fc" stroke-linecap="square" stroke-width="1"/>
      </g>
      <g id="pattern_4_18" data-name="pattern (4)" transform="translate(58.635 58.635)">
        <rect id="Rectangle_4-18" data-name="Rectangle 4" width="59" height="59" transform="translate(7.094 7.203)" fill="rgba(255,255,255,0)"/>
        <path id="Path_1-18" data-name="Path 1" d="M24.318,31.318H38.977M24.318,25.454H38.977M53.635,2H68.294M53.635,54.772H68.294M-5,54.772H9.659M-5,2H9.659" transform="translate(5 8.261)" fill="none" stroke="#5f6b9b" stroke-linecap="square" stroke-width="1"/>
        <path id="Path_2-18" data-name="Path 2" d="M25.454-5V9.659M31.318-5V9.659M54.772,24.318V38.977M25.454,53.635V68.294m5.864-14.659V68.294M2,24.318V38.977" transform="translate(8.261 5)" fill="none" stroke="#e3e8fc" stroke-linecap="square" stroke-width="1"/>
      </g>
      <g id="pattern_4_19" data-name="pattern (4)" transform="translate(58.635 105.544)">
        <rect id="Rectangle_4-19" data-name="Rectangle 4" width="59" height="59" transform="translate(7.094 7.294)" fill="rgba(255,255,255,0)"/>
        <path id="Path_1-19" data-name="Path 1" d="M24.318,31.318H38.977M24.318,25.454H38.977M53.635,2H68.294M53.635,54.772H68.294M-5,54.772H9.659M-5,2H9.659" transform="translate(5 8.261)" fill="none" stroke="#5f6b9b" stroke-linecap="square" stroke-width="1"/>
        <path id="Path_2-19" data-name="Path 2" d="M25.454-5V9.659M31.318-5V9.659M54.772,24.318V38.977M25.454,53.635V68.294m5.864-14.659V68.294M2,24.318V38.977" transform="translate(8.261 5)" fill="none" stroke="#e3e8fc" stroke-linecap="square" stroke-width="1"/>
      </g>
    </g>
  </g>
</svg>
